<?xml version="1.0" encoding="UTF-8" standalone="no"?>
<!-- Created with Inkscape (http://www.inkscape.org/) -->

<svg
   xmlns:dc="http://purl.org/dc/elements/1.1/"
   xmlns:cc="http://creativecommons.org/ns#"
   xmlns:rdf="http://www.w3.org/1999/02/22-rdf-syntax-ns#"
   xmlns:svg="http://www.w3.org/2000/svg"
   xmlns="http://www.w3.org/2000/svg"
   xmlns:sodipodi="http://sodipodi.sourceforge.net/DTD/sodipodi-0.dtd"
   xmlns:inkscape="http://www.inkscape.org/namespaces/inkscape"
   width="128"
   height="128"
   viewBox="0 0 128 128"
   id="svg2"
   version="1.1"
   inkscape:version="0.91 r13725"
   inkscape:export-filename="/home/pry/Pictures/Logos/favicon.ico"
   inkscape:export-xdpi="90"
   inkscape:export-ydpi="90"
   sodipodi:docname="favicon.svg">
  <defs
     id="defs4" />
  <sodipodi:namedview
     id="base"
     pagecolor="#ffffff"
     bordercolor="#666666"
     borderopacity="1.0"
     inkscape:pageopacity="0.0"
     inkscape:pageshadow="2"
     inkscape:zoom="2.8284271"
     inkscape:cx="55.526965"
     inkscape:cy="94.876893"
     inkscape:document-units="px"
     inkscape:current-layer="layer1"
     showgrid="false"
     units="px"
     inkscape:snap-bbox="true"
     inkscape:snap-text-baseline="true"
     showguides="true"
     inkscape:guide-bbox="true"
     inkscape:window-width="1598"
     inkscape:window-height="867"
     inkscape:window-x="0"
     inkscape:window-y="32"
     inkscape:window-maximized="0"
     borderlayer="true">
    <sodipodi:guide
       position="261.62951,620.83976"
       orientation="0,1"
       id="guide3537" />
    <sodipodi:guide
       position="-36.769553,106.06602"
       orientation="0,1"
       id="guide3539" />
    <sodipodi:guide
       position="313.95542,543.05802"
       orientation="0,1"
       id="guide3541" />
    <sodipodi:guide
       position="305.47013,182.43355"
       orientation="0,1"
       id="guide3543" />
  </sodipodi:namedview>
  <metadata
     id="metadata7">
    <rdf:RDF>
      <cc:Work
         rdf:about="">
        <dc:format>image/svg+xml</dc:format>
        <dc:type
           rdf:resource="http://purl.org/dc/dcmitype/StillImage" />
        <dc:title></dc:title>
      </cc:Work>
    </rdf:RDF>
  </metadata>
  <g
     inkscape:label="Layer 1"
     inkscape:groupmode="layer"
     id="layer1"
     transform="translate(0,-924.3622)">
    <path
       style="font-style:normal;font-weight:normal;font-size:355.70474243px;line-height:125%;font-family:sans-serif;letter-spacing:0px;word-spacing:0px;fill:#000000;fill-opacity:1;stroke:none;stroke-width:1px;stroke-linecap:butt;stroke-linejoin:miter;stroke-opacity:1"
       d="m 18.644864,958.43337 -11.7614784,6.96102 11.7576654,6.96809 0.0039,-13.92911 z m 0.957333,0 -0.0041,13.92911 11.693318,-6.96101 -11.689127,-6.9681 z m 59.133735,0 -11.761858,6.96102 11.757676,6.96809 0.0041,-13.92911 z m 0.956956,0 -0.0041,13.92911 11.69331,-6.96023 -11.689497,-6.96888 z m 29.088402,0 -11.761478,6.96102 11.757648,6.96809 0.004,-13.92911 z m 0.95733,7.9e-4 -0.004,13.92832 11.69331,-6.96023 -11.68913,-6.96809 z m -72.986205,7.60334 0,5.4869 4.559358,3.44119 0,2.18013 -1.78216,0 0,-1.66831 -2.872022,0 0,4.26511 7.535717,0 0,-5.8666 -4.568879,-3.43098 0,-1.79175 1.876975,0 0,1.45919 2.606601,0 0,-4.07488 -7.35559,0 z m 8.701722,0 0,13.70502 6.748974,0 0,-2.5968 -3.867423,0 0,-3.29889 3.58296,0 0,-2.55908 -3.621051,0 0,-2.64478 3.81069,0 0,-2.60547 -6.65415,0 z m 9.857854,0 -2.047203,1.88531 0,11.81971 6.180055,0 1.896017,-1.8955 0,-2.36961 -2.881928,0 0,1.66831 -2.312609,0 0,-8.50275 2.312609,0 0,2.5693 2.881928,0 0,-5.17477 -6.028869,0 z m -48.9076578,0.17297 -0.00385,13.92915 11.7614758,-6.96106 -11.757669,-6.96809 z m 25.3652758,0 -11.692932,6.96102 11.689127,6.96813 0.0039,-13.92915 z m 34.725786,0 -0.0041,13.92915 11.761473,-6.96106 -11.75766,-6.96809 z m 25.36529,0 -11.693317,6.96023 11.689504,6.96812 0.0041,-13.92835 z m 4.680064,7.8e-4 -0.0041,13.92907 11.761481,-6.96097 -11.757652,-6.9681 z m 25.365281,0 -11.69331,6.96102 11.6895,6.96805 0.004,-13.92907 z m -102.308401,7.77867 -0.0039,13.9283 11.69331,-6.961 -11.689505,-6.9673 z m 60.091076,0 -0.0041,13.9283 11.69331,-6.961 -11.68912,-6.9673 z m 30.045335,0 -0.004,13.9291 11.69292,-6.961 -11.68911,-6.9681 z m -103.3338957,7.7779 -0.00413,13.9991 11.7618597,-6.9611 -11.75767,-7.038 z m 25.3652747,0 -11.69331,7.031 11.68912,6.9673 0.0041,-13.9983 z m 4.680071,8e-4 -0.0039,13.9291 11.761489,-6.961 -11.757676,-6.9681 z m 25.365282,0 -11.693318,6.9618 5.605422,3.3783 6.085978,-3.6566 0.0014,-6.6835 z m 4.680055,0 -0.0041,14.0006 11.761473,-6.9618 -11.75766,-7.0388 z m 25.365291,0 -11.693318,7.0317 11.689512,6.9689 0.0041,-14.0006 z m 4.680456,8e-4 -0.0041,14.0006 11.761876,-6.9618 -11.757701,-7.0388 z m 25.365286,0 -11.69332,7.0325 11.68911,6.9681 0.004,-14.0006 z m -73.220417,7.7881 -11.761473,6.9594 11.757676,6.96808 0.0041,-13.92748 z m 0.957349,0 -0.0041,13.92908 11.69331,-6.96098 c -1.458323,-0.8429 -2.620375,-1.5261 -3.486249,-2.0418 -0.865874,-0.5189 -1.663419,-0.9851 -2.392573,-1.4073 -0.729122,-0.4639 -1.526723,-0.9592 -2.392597,-1.4781 -0.865874,-0.5189 -2.004961,-1.1973 -3.4177,-2.0409 z m -31.002694,0.1022 -11.7618528,6.9618 11.7580478,6.96728 0.0039,-13.92908 z m 60.090691,0 -11.761474,6.9618 11.757669,6.96728 0.0041,-13.92908 z m 30.045731,0 -11.761859,6.9618 11.757679,6.96728 0.004,-13.92908 z m -46.966316,7.7244 -11.69294,6.96098 11.689127,7.0389 0.0041,-13.99988 z m -55.4106291,0.1022 -0.00385,13.92748 11.7614751,-6.9602 -11.7576667,-6.96728 z m 25.3652761,0 -11.69331,6.95938 11.689505,6.9697 0.0039,-13.92908 z m 34.725802,0 -0.0041,13.92748 11.761859,-6.9594 -11.757668,-6.96808 z m 25.365274,0 -11.69331,6.95938 11.689128,6.9681 0.0041,-13.92748 z m 4.680071,8e-4 -0.0041,13.92908 11.761482,-6.9618 -11.757669,-6.96728 z m 25.365282,0 -11.69333,6.96098 11.68952,6.9681 0.004,-13.92908 z m -79.235562,3.63538 -6.222698,3.6558 -0.0019,6.6119 11.761482,-7.0309 -5.53688,-3.2368 z m -24.03018,4.1417 -11.7614817,6.961 11.7576687,6.9689 0.0039,-13.9299 z m 0.957333,0 -0.0039,13.9299 11.692933,-6.961 -11.689127,-6.9689 z m 59.133727,0 -11.761843,6.9626 11.757661,6.9673 0.0041,-13.9299 z m 0.956956,0 -0.0041,13.9284 11.69331,-6.9603 -11.689497,-6.9681 z m 29.088406,0 -11.761474,6.9611 11.757644,6.9673 0.004,-13.9284 z m 0.95732,0 -0.004,13.9292 11.69331,-6.9611 -11.68912,-6.9681 z"
       id="text3336"
       inkscape:connector-curvature="0" />
  </g>
</svg>
