<?xml version="1.0" encoding="UTF-8" standalone="no"?>
<!-- Created with Inkscape (http://www.inkscape.org/) -->

<svg
   xmlns:dc="http://purl.org/dc/elements/1.1/"
   xmlns:cc="http://creativecommons.org/ns#"
   xmlns:rdf="http://www.w3.org/1999/02/22-rdf-syntax-ns#"
   xmlns:svg="http://www.w3.org/2000/svg"
   xmlns="http://www.w3.org/2000/svg"
   xmlns:sodipodi="http://sodipodi.sourceforge.net/DTD/sodipodi-0.dtd"
   xmlns:inkscape="http://www.inkscape.org/namespaces/inkscape"
   width="224"
   height="66"
   viewBox="0 0 224 66.000001"
   id="svg2"
   version="1.1"
   inkscape:version="0.91 r13725"
   inkscape:export-filename="/home/pry/Pictures/Logos/discourse-logo2.png"
   inkscape:export-xdpi="90"
   inkscape:export-ydpi="90"
   sodipodi:docname="logo-site.svg">
  <defs
     id="defs4" />
  <sodipodi:namedview
     id="base"
     pagecolor="#ffffff"
     bordercolor="#666666"
     borderopacity="1.0"
     inkscape:pageopacity="0.0"
     inkscape:pageshadow="2"
     inkscape:zoom="2"
     inkscape:cx="155.17404"
     inkscape:cy="21.323936"
     inkscape:document-units="px"
     inkscape:current-layer="layer1"
     showgrid="false"
     units="px"
     inkscape:snap-bbox="true"
     inkscape:snap-text-baseline="true"
     showguides="true"
     inkscape:guide-bbox="true"
     inkscape:window-width="1598"
     inkscape:window-height="867"
     inkscape:window-x="0"
     inkscape:window-y="32"
     inkscape:window-maximized="0">
    <sodipodi:guide
       position="261.62951,620.83976"
       orientation="0,1"
       id="guide3537" />
    <sodipodi:guide
       position="-36.769553,106.06602"
       orientation="0,1"
       id="guide3539" />
    <sodipodi:guide
       position="313.95542,543.05802"
       orientation="0,1"
       id="guide3541" />
    <sodipodi:guide
       position="305.47013,182.43355"
       orientation="0,1"
       id="guide3543" />
  </sodipodi:namedview>
  <metadata
     id="metadata7">
    <rdf:RDF>
      <cc:Work
         rdf:about="">
        <dc:format>image/svg+xml</dc:format>
        <dc:type
           rdf:resource="http://purl.org/dc/dcmitype/StillImage" />
        <dc:title></dc:title>
      </cc:Work>
    </rdf:RDF>
  </metadata>
  <g
     inkscape:label="Layer 1"
     inkscape:groupmode="layer"
     id="layer1"
     transform="translate(0,-986.36216)">
    <path
       style="font-style:normal;font-weight:normal;font-size:355.70474243px;line-height:125%;font-family:sans-serif;letter-spacing:0px;word-spacing:0px;fill:#000000;fill-opacity:1;stroke:none;stroke-width:1px;stroke-linecap:butt;stroke-linejoin:miter;stroke-opacity:1"
       d="M 15.984375 4.375 L 4.8691406 10.953125 L 15.980469 17.539062 L 15.984375 4.375 z M 16.888672 4.3769531 L 16.884766 17.539062 L 27.935547 10.960938 L 16.888672 4.3769531 z M 72.771484 4.3925781 L 61.65625 10.970703 L 72.767578 17.554688 L 72.771484 4.3925781 z M 73.675781 4.3925781 L 73.671875 17.556641 L 84.722656 10.976562 L 73.675781 4.3925781 z M 101.16406 4.4023438 L 90.048828 10.980469 L 101.16016 17.566406 L 101.16406 4.4023438 z M 102.06836 4.4023438 L 102.06445 17.566406 L 113.11523 10.988281 L 102.06836 4.4023438 z M 4.4160156 11.751953 L 4.4121094 24.916016 L 15.527344 18.337891 L 4.4160156 11.751953 z M 28.386719 11.763672 L 17.335938 18.341797 L 28.382812 24.925781 L 28.386719 11.763672 z M 61.203125 11.773438 L 61.199219 24.9375 L 72.314453 18.359375 L 61.203125 11.773438 z M 85.173828 11.783203 L 74.123047 18.361328 L 85.169922 24.947266 L 85.173828 11.783203 z M 89.597656 11.787109 L 89.59375 24.947266 L 100.70703 18.369141 L 89.597656 11.787109 z M 113.56836 11.794922 L 102.51758 18.373047 L 113.56445 24.957031 L 113.56836 11.794922 z M 16.884766 19.146484 L 16.880859 32.308594 L 27.929688 25.730469 L 16.884766 19.146484 z M 73.671875 19.162109 L 73.667969 32.326172 L 84.71875 25.748047 L 73.671875 19.162109 z M 102.06445 19.175781 L 102.06055 32.337891 L 113.11133 25.759766 L 102.06445 19.175781 z M 4.4121094 26.525391 L 4.4082031 39.755859 L 15.523438 33.177734 L 4.4121094 26.525391 z M 28.382812 26.539062 L 17.332031 33.183594 L 28.378906 39.767578 L 28.382812 26.539062 z M 32.804688 26.539062 L 32.800781 39.701172 L 43.916016 33.123047 L 32.804688 26.539062 z M 56.775391 26.552734 L 45.726562 33.130859 L 51.023438 36.322266 L 56.775391 32.867188 L 56.775391 26.552734 z M 61.199219 26.552734 L 61.195312 39.78125 L 72.310547 33.203125 L 61.199219 26.552734 z M 85.169922 26.564453 L 74.119141 33.208984 L 85.166016 39.794922 L 85.169922 26.564453 z M 89.59375 26.564453 L 89.589844 39.794922 L 100.70508 33.216797 L 89.59375 26.564453 z M 113.56445 26.578125 L 102.51367 33.222656 L 113.56055 39.806641 L 113.56445 26.578125 z M 44.369141 33.935547 L 33.253906 40.515625 L 44.365234 47.099609 L 44.369141 33.935547 z M 45.273438 33.9375 L 45.269531 47.099609 L 56.320312 40.521484 C 54.942163 39.723184 53.843661 39.079597 53.025391 38.591797 C 52.207111 38.103997 51.452742 37.660719 50.763672 37.261719 C 50.074602 36.818219 49.322166 36.352834 48.503906 35.865234 C 47.685636 35.377434 46.608517 34.7356 45.273438 33.9375 z M 15.974609 33.994141 L 4.859375 40.572266 L 15.972656 47.158203 L 15.976562 33.994141 L 15.974609 33.994141 z M 72.761719 34.011719 L 61.648438 40.589844 L 72.757812 47.175781 L 72.763672 34.011719 L 72.761719 34.011719 z M 101.15625 34.025391 L 90.041016 40.603516 L 101.15234 47.1875 L 101.15625 34.025391 z M 56.771484 41.324219 L 45.722656 47.902344 L 56.767578 54.554688 L 56.771484 41.324219 z M 4.4082031 41.375 L 4.4042969 54.537109 L 15.519531 47.958984 L 4.4082031 41.375 z M 28.378906 41.386719 L 17.328125 47.964844 L 28.375 54.550781 L 28.378906 41.386719 z M 61.195312 41.400391 L 61.191406 54.5625 L 72.306641 47.986328 L 61.195312 41.400391 z M 85.166016 41.414062 L 74.115234 47.992188 L 85.162109 54.576172 L 85.166016 41.414062 z M 89.587891 41.414062 L 89.583984 54.576172 L 100.69922 47.998047 L 89.587891 41.414062 z M 113.55859 41.425781 L 102.50977 48.003906 L 113.55664 54.589844 L 113.56055 41.425781 L 113.55859 41.425781 z M 38.679688 44.861328 L 32.798828 48.316406 L 32.798828 54.566406 L 43.912109 47.919922 L 38.679688 44.861328 z M 15.970703 48.777344 L 4.8554688 55.355469 L 15.966797 61.939453 L 15.970703 48.777344 z M 16.875 48.777344 L 16.871094 61.939453 L 27.921875 55.361328 L 16.875 48.777344 z M 72.757812 48.792969 L 61.642578 55.371094 L 72.753906 61.957031 L 72.757812 48.792969 z M 73.662109 48.794922 L 73.658203 61.957031 L 84.708984 55.378906 L 73.662109 48.794922 z M 101.15234 48.806641 L 90.037109 55.384766 L 101.14844 61.970703 L 101.15234 48.806641 z M 102.05664 48.806641 L 102.05273 61.970703 L 113.10352 55.392578 L 102.05664 48.806641 z "
       transform="translate(0,986.36216)"
       id="text3336" />
    <text
       xml:space="preserve"
       style="font-style:normal;font-weight:normal;font-size:40px;line-height:125%;font-family:'Aldo the Apache';letter-spacing:0px;word-spacing:0px;fill:#ffffff;fill-opacity:1;stroke:none;stroke-width:1px;stroke-linecap:butt;stroke-linejoin:miter;stroke-opacity:1;-inkscape-font-specification:'Aldo the Apache';font-stretch:normal;font-variant:normal;"
       x="130.75"
       y="1016.8622"
       id="text3371"
       sodipodi:linespacing="125%"><tspan
         sodipodi:role="line"
         id="tspan3373"
         x="130.75"
         y="1016.8622"
         style="font-size:7.5px;-inkscape-font-specification:'Aldo the Apache';font-family:'Aldo the Apache';font-weight:normal;font-style:normal;font-stretch:normal;font-variant:normal;" /></text>
    <text
       xml:space="preserve"
       style="font-style:normal;font-variant:normal;font-weight:normal;font-stretch:normal;font-size:74.96033478px;line-height:125%;font-family:'Aldo the Apache';-inkscape-font-specification:'Aldo the Apache';letter-spacing:0px;word-spacing:0px;fill:#000000;fill-opacity:1;stroke:none;stroke-width:1px;stroke-linecap:butt;stroke-linejoin:miter;stroke-opacity:1"
       x="120.88678"
       y="1036.8374"
       id="text3375"
       sodipodi:linespacing="125%"
       transform="scale(0.99089015,1.0091936)"><tspan
         sodipodi:role="line"
         id="tspan3377"
         x="120.88678"
         y="1036.8374">SEC</tspan></text>
  </g>
</svg>
