<?xml version="1.0" encoding="UTF-8" standalone="no"?>
<!-- Created with Inkscape (http://www.inkscape.org/) -->

<svg
   xmlns:dc="http://purl.org/dc/elements/1.1/"
   xmlns:cc="http://creativecommons.org/ns#"
   xmlns:rdf="http://www.w3.org/1999/02/22-rdf-syntax-ns#"
   xmlns:svg="http://www.w3.org/2000/svg"
   xmlns="http://www.w3.org/2000/svg"
   xmlns:sodipodi="http://sodipodi.sourceforge.net/DTD/sodipodi-0.dtd"
   xmlns:inkscape="http://www.inkscape.org/namespaces/inkscape"
   width="66"
   height="66"
   viewBox="0 0 66.000001 66.000001"
   id="svg2"
   version="1.1"
   inkscape:version="0.91 r13725"
   inkscape:export-filename="/home/pry/Pictures/Logos/logo-small.png"
   inkscape:export-xdpi="90"
   inkscape:export-ydpi="90"
   sodipodi:docname="logo-small.svg">
  <defs
     id="defs4" />
  <sodipodi:namedview
     id="base"
     pagecolor="#ffffff"
     bordercolor="#666666"
     borderopacity="1.0"
     inkscape:pageopacity="0.0"
     inkscape:pageshadow="2"
     inkscape:zoom="8.0000002"
     inkscape:cx="30.850153"
     inkscape:cy="28.226059"
     inkscape:document-units="px"
     inkscape:current-layer="layer1"
     showgrid="false"
     units="px"
     inkscape:snap-bbox="true"
     inkscape:snap-text-baseline="true"
     showguides="true"
     inkscape:guide-bbox="true"
     inkscape:window-width="1598"
     inkscape:window-height="867"
     inkscape:window-x="0"
     inkscape:window-y="32"
     inkscape:window-maximized="0">
    <sodipodi:guide
       position="261.62951,620.83976"
       orientation="0,1"
       id="guide3537" />
    <sodipodi:guide
       position="-36.769553,106.06602"
       orientation="0,1"
       id="guide3539" />
    <sodipodi:guide
       position="313.95542,543.05802"
       orientation="0,1"
       id="guide3541" />
    <sodipodi:guide
       position="305.47013,182.43355"
       orientation="0,1"
       id="guide3543" />
  </sodipodi:namedview>
  <metadata
     id="metadata7">
    <rdf:RDF>
      <cc:Work
         rdf:about="">
        <dc:format>image/svg+xml</dc:format>
        <dc:type
           rdf:resource="http://purl.org/dc/dcmitype/StillImage" />
        <dc:title></dc:title>
      </cc:Work>
    </rdf:RDF>
  </metadata>
  <g
     inkscape:label="Layer 1"
     inkscape:groupmode="layer"
     id="layer1"
     transform="translate(0,-986.36216)">
    <path
       style="font-style:normal;font-weight:normal;font-size:355.70474243px;line-height:125%;font-family:sans-serif;letter-spacing:0px;word-spacing:0px;fill:#000000;fill-opacity:1;stroke:none;stroke-width:1px;stroke-linecap:butt;stroke-linejoin:miter;stroke-opacity:1"
       d="m 13.761643,1005.0446 -5.1386478,3.0414 5.1369838,3.0443 0.0017,-6.0857 z m 0.418265,2e-4 -0.0018,6.0856 5.108867,-3.0413 -5.107037,-3.0443 z m 25.835824,0.01 -5.138814,3.0414 5.136984,3.0443 0.0018,-6.0857 z m 0.4181,2e-4 -0.0017,6.0857 5.108867,-3.0414 -5.107203,-3.0443 z m 12.708862,0 -5.138648,3.0414 5.136984,3.0443 0.0017,-6.0857 z m 0.418265,2e-4 -0.0018,6.0857 5.108867,-3.0414 -5.107037,-3.0443 z m -31.888035,3.3215 0,2.398 1.992005,1.5033 0,0.9525 -0.778634,0 0,-0.7289 -1.254798,0 0,1.8636 3.292389,0 0,-2.5635 -1.996164,-1.4992 0,-0.7826 0.820062,0 0,0.6377 1.138834,0 0,-1.7809 -3.213694,0 z m 3.801828,0 0,5.9885 2.948659,0 0,-1.1347 -1.689701,0 0,-1.4413 1.565419,0 0,-1.1182 -1.582057,0 0,-1.1553 1.664912,0 0,-1.139 -2.907232,0 z m 4.306942,0 -0.894431,0.8242 0,5.1643 2.700094,0 0.82838,-0.8282 0,-1.0354 -1.259124,0 0,0.7289 -1.010392,0 0,-3.7148 1.010392,0 0,1.1222 1.259124,0 0,-2.2612 -2.634043,0 z m -21.3679988,0.077 -0.0017,6.0857 5.1386468,-3.0412 -5.1369838,-3.0445 z m 11.0822168,0 -5.1087,3.0413 5.107036,3.0443 0.0017,-6.0856 z m 15.171873,0 -0.0017,6.0855 5.138648,-3.0411 -5.136985,-3.0444 z m 11.082217,0 -5.108867,3.0411 5.107203,3.0444 0.0017,-6.0855 z m 2.044745,5e-4 -0.0017,6.0856 5.138647,-3.0413 -5.136984,-3.0443 z m 11.082216,0 -5.108867,3.0413 5.107203,3.0444 0.0017,-6.0857 z m -44.699051,3.3984 -0.0017,6.0855 5.108867,-3.0412 -5.107204,-3.0443 z m 26.25409,0.01 -0.0018,6.0857 5.108867,-3.0414 -5.107038,-3.0443 z m 13.126962,0 -0.0017,6.0857 5.108701,-3.0412 -5.107037,-3.0445 z m -45.1470988,3.3982 -0.0018,6.1165 5.1388148,-3.0414 -5.1369838,-3.0751 z m 11.0822168,0 -5.108867,3.0719 5.107036,3.0443 0.0018,-6.1162 z m 2.044744,6e-4 -0.0017,6.0855 5.138649,-3.0411 -5.136985,-3.0444 z m 11.082218,0 -5.108867,3.0413 2.449035,1.4761 2.658999,-1.5975 8.52e-4,-2.9199 z m 2.044745,7e-4 -0.0017,6.1164 5.138647,-3.0413 -5.136984,-3.0751 z m 11.082216,0 -5.108867,3.0721 5.107203,3.0443 0.0017,-6.1164 z m 2.044911,7e-4 -0.0018,6.1163 5.138814,-3.0412 -5.136985,-3.0751 z m 11.082217,0 -5.108867,3.072 5.107037,3.0443 0.0018,-6.1163 z m -31.990355,3.4021 -5.138648,3.0413 5.136984,3.0443 0.0017,-6.0856 z m 0.418265,10e-5 -0.0018,6.0857 5.108867,-3.0414 c -0.637148,-0.369 -1.144855,-0.6662 -1.52316,-0.8917 -0.378305,-0.2255 -0.726757,-0.4306 -1.045332,-0.6151 -0.318568,-0.205 -0.667026,-0.4202 -1.045332,-0.6457 -0.378306,-0.2255 -0.875978,-0.5228 -1.493213,-0.8918 z m -13.545227,0.027 -5.1388138,3.0414 5.1371498,3.0443 0.0017,-6.0857 z m 26.253924,0.01 -5.138649,3.0413 5.136985,3.0443 0.0017,-6.0856 z m 13.127127,0 -5.138815,3.0413 5.136985,3.0443 0.0018,-6.0856 z m -20.51982,3.3747 -5.1087,3.0413 5.107036,3.0751 0.0017,-6.1164 z m -24.2091778,0.024 -0.0017,6.0856 5.1386478,-3.0413 -5.1369838,-3.0443 z m 11.0822158,0 -5.108867,3.0413 5.107204,3.0443 0.0017,-6.0856 z m 15.171873,0 -0.0018,6.0856 5.138814,-3.0411 -5.136984,-3.0445 z m 11.082217,0 -5.108867,3.0413 5.107037,3.0444 0.0018,-6.0857 z m 2.044745,7e-4 -0.0017,6.0856 5.138648,-3.0413 -5.136983,-3.0443 z m 11.082217,0 -5.108868,3.0414 5.107204,3.0443 0.0017,-6.0857 z m -34.61841,1.5879 -2.718729,1.5974 -8.52e-4,2.8892 5.138648,-3.0721 -2.419087,-1.4145 z m -10.498907,1.8103 -5.1386478,3.0412 5.1369838,3.0443 0.0017,-6.0855 z m 0.418265,0 -0.0017,6.0857 5.108701,-3.0414 -5.107037,-3.0443 z m 25.835824,0.01 -5.138814,3.0414 5.136984,3.0443 0.0018,-6.0857 z m 0.4181,2e-4 -0.0017,6.0855 5.108867,-3.0412 -5.107203,-3.0443 z m 12.708862,0 -5.138648,3.0413 5.136984,3.0443 0.0017,-6.0856 z m 0.418265,10e-5 -0.0018,6.0857 5.108867,-3.0413 -5.107037,-3.0444 z"
       id="text3336"
       inkscape:connector-curvature="0" />
  </g>
</svg>
