<?xml version="1.0" encoding="UTF-8" standalone="no"?>
<!-- Created with Inkscape (http://www.inkscape.org/) -->

<svg
   xmlns:dc="http://purl.org/dc/elements/1.1/"
   xmlns:cc="http://creativecommons.org/ns#"
   xmlns:rdf="http://www.w3.org/1999/02/22-rdf-syntax-ns#"
   xmlns:svg="http://www.w3.org/2000/svg"
   xmlns="http://www.w3.org/2000/svg"
   xmlns:sodipodi="http://sodipodi.sourceforge.net/DTD/sodipodi-0.dtd"
   xmlns:inkscape="http://www.inkscape.org/namespaces/inkscape"
   width="720"
   height="720"
   viewBox="0 0 720.00001 720.00001"
   id="svg2"
   version="1.1"
   inkscape:version="0.91 r13725"
   inkscape:export-filename="/home/pry/Pictures/Logos/0x00sec-mk4.png"
   inkscape:export-xdpi="90"
   inkscape:export-ydpi="90"
   sodipodi:docname="drawing.svg">
  <defs
     id="defs4" />
  <sodipodi:namedview
     id="base"
     pagecolor="#ffffff"
     bordercolor="#666666"
     borderopacity="1.0"
     inkscape:pageopacity="0.0"
     inkscape:pageshadow="2"
     inkscape:zoom="0.1767767"
     inkscape:cx="775.24987"
     inkscape:cy="-202.44822"
     inkscape:document-units="px"
     inkscape:current-layer="layer1"
     showgrid="false"
     units="px"
     inkscape:snap-bbox="true"
     inkscape:snap-text-baseline="true"
     showguides="true"
     inkscape:guide-bbox="true"
     inkscape:window-width="1278"
     inkscape:window-height="780"
     inkscape:window-x="0"
     inkscape:window-y="18"
     inkscape:window-maximized="0">
    <sodipodi:guide
       position="261.62951,620.83976"
       orientation="0,1"
       id="guide3537" />
    <sodipodi:guide
       position="-36.769553,106.06602"
       orientation="0,1"
       id="guide3539" />
    <sodipodi:guide
       position="313.95542,543.05802"
       orientation="0,1"
       id="guide3541" />
    <sodipodi:guide
       position="305.47013,182.43355"
       orientation="0,1"
       id="guide3543" />
  </sodipodi:namedview>
  <metadata
     id="metadata7">
    <rdf:RDF>
      <cc:Work
         rdf:about="">
        <dc:format>image/svg+xml</dc:format>
        <dc:type
           rdf:resource="http://purl.org/dc/dcmitype/StillImage" />
        <dc:title></dc:title>
      </cc:Work>
    </rdf:RDF>
  </metadata>
  <g
     inkscape:label="Layer 1"
     inkscape:groupmode="layer"
     id="layer1"
     transform="translate(0,-332.36216)">
    <rect
       style="fill:#000000"
       id="rect3528"
       width="733.97687"
       height="726.90576"
       x="-2.8284271"
       y="328.28482" />
    <path
       style="font-style:normal;font-weight:normal;font-size:355.70474243px;line-height:125%;font-family:sans-serif;letter-spacing:0px;word-spacing:0px;fill:#ffffff;fill-opacity:1;stroke:none;stroke-width:1px;stroke-linecap:butt;stroke-linejoin:miter;stroke-opacity:1"
       d="m 133.37891,530.02232 -60.324222,35.70312 60.304692,35.73828 0.0195,-71.4414 z m 4.91015,0.002 -0.0215,71.44141 59.97461,-35.70313 -59.95313,-35.73828 z m 303.29492,0.0898 -60.32617,35.70313 60.30469,35.73828 0.0215,-71.44141 z m 4.90821,0.002 -0.0195,71.4414 59.97461,-35.70312 -59.95508,-35.73828 z m 149.19336,0.0449 -60.32422,35.70312 60.30469,35.73828 0.0195,-71.4414 z m 4.91015,0.002 -0.0215,71.44141 59.97461,-35.70313 -59.95313,-35.73828 z m -374.34375,38.99219 0,28.15039 23.38477,17.64844 0,11.18164 -9.14063,0 0,-8.55664 -14.73047,0 0,21.87695 38.6504,0 0,-30.09375 -23.4336,-17.59961 0,-9.1875 9.62696,0 0,7.48633 13.36914,0 0,-20.90625 -37.72657,0 z m 44.63086,0 0,70.30078 34.61524,0 0,-13.32031 -19.83594,0 0,-16.91992 18.37695,0 0,-13.12696 -18.57226,0 0,-13.5625 19.54492,0 0,-13.37109 -34.12891,0 z m 50.56055,0 -10.5,9.67578 0,60.625 31.69726,0 9.72461,-9.72266 0,-12.15429 -14.78125,0 0,8.55664 -11.86132,0 0,-43.60938 11.86132,0 0,13.17383 14.78125,0 0,-26.54492 -30.92187,0 z m -250.845704,0.89844 -0.01953,71.4414 60.324214,-35.70117 -60.304683,-35.74023 z m 130.097654,0.0391 -59.97265,35.70312 59.95312,35.73829 0.0195,-71.44141 z m 178.10742,0.0547 -0.0195,71.43945 60.32422,-35.70117 -60.30469,-35.73828 z m 130.09766,0.0391 -59.97461,35.70117 59.95508,35.73828 0.0195,-71.43945 z m 24.00391,0.006 -0.0195,71.4414 60.32421,-35.70312 -60.30468,-35.73828 z m 130.09765,0.0391 -59.97461,35.70313 59.95508,35.73828 0.0195,-71.44141 z m -524.73633,39.89453 -0.0195,71.43945 59.97461,-35.70117 -59.95508,-35.73828 z m 308.20508,0.0918 -0.0215,71.44141 59.97461,-35.70313 -59.95313,-35.73828 z m 154.10157,0.0449 -0.0195,71.44141 59.97266,-35.70118 -59.95312,-35.74023 z m -529.996098,39.89258 -0.02148,71.80273 60.326168,-35.70312 -60.304684,-36.09961 z m 130.097658,0.0391 -59.97461,36.0625 59.95312,35.73828 0.0215,-71.80078 z m 24.0039,0.008 -0.0195,71.43946 60.32422,-35.70118 -60.30469,-35.73828 z m 130.09766,0.0371 -59.97461,35.70313 28.75,17.32812 31.21484,-18.7539 0.01,-34.27735 z m 24.00391,0.008 -0.0195,71.80273 60.32421,-35.70312 -60.30468,-36.09961 z m 130.09765,0.0391 -59.97461,36.06445 59.95508,35.73828 0.0195,-71.80273 z m 24.00586,0.008 -0.0215,71.80078 60.32617,-35.70117 -60.30469,-36.09961 z m 130.09766,0.0391 -59.97461,36.0625 59.95312,35.73828 0.0215,-71.80078 z m -375.54492,39.9375 -60.32422,35.70313 60.30469,35.73828 0.0195,-71.44141 z m 4.91015,0.002 -0.0215,71.4414 59.97461,-35.70312 c -7.47969,-4.33201 -13.43982,-7.82145 -17.88086,-10.46875 -4.44105,-2.6473 -8.53164,-5.0547 -12.27149,-7.22071 -3.73977,-2.40654 -7.83043,-4.93278 -12.27148,-7.58007 -4.44105,-2.6473 -10.28338,-6.13682 -17.5293,-10.46875 z m -159.01172,0.3125 -60.326168,35.70312 60.306638,35.73828 0.0195,-71.4414 z m 308.20313,0.0918 -60.32422,35.70313 60.30469,35.73828 0.0195,-71.44141 z m 154.10351,0.0469 -60.32617,35.70312 60.30469,35.73828 0.0215,-71.4414 z m -240.88867,39.61719 -59.97265,35.70312 59.95312,36.09961 0.0195,-71.80273 z m -284.199216,0.27539 -0.01953,71.4414 60.324216,-35.70312 -60.304685,-35.73828 z m 130.097656,0.0391 -59.97461,35.70312 59.95508,35.73829 0.0195,-71.44141 z m 178.10742,0.0527 -0.0215,71.44141 60.32617,-35.70117 -60.30469,-35.74024 z m 130.09766,0.0391 -59.97461,35.70312 59.95312,35.73828 0.0215,-71.4414 z m 24.00391,0.008 -0.0195,71.4414 60.32422,-35.70312 -60.30468,-35.73828 z m 130.09765,0.0391 -59.97461,35.70313 59.95508,35.73828 0.0195,-71.44141 z m -406.39648,18.64063 -31.91602,18.75195 -0.01,33.91797 60.32421,-36.06446 -28.39843,-16.60546 z m -123.25,21.25195 -60.324222,35.70117 60.304692,35.73828 0.0195,-71.43945 z m 4.91015,0 -0.0195,71.4414 59.97266,-35.70312 -59.95313,-35.73828 z m 303.29492,0.0918 -60.32617,35.70312 60.30469,35.73828 0.0215,-71.4414 z m 4.90821,0.002 -0.0195,71.43945 59.97461,-35.70117 -59.95508,-35.73828 z m 149.19336,0.043 -60.32422,35.70312 60.30469,35.73828 0.0195,-71.4414 z m 4.91015,0.002 -0.0215,71.44141 59.97461,-35.70313 -59.95313,-35.73828 z"
       id="text3336"
       inkscape:connector-curvature="0" />
  </g>
</svg>
