<?xml version="1.0" encoding="UTF-8" standalone="no"?>
<!-- Created with Inkscape (http://www.inkscape.org/) -->

<svg
   xmlns:dc="http://purl.org/dc/elements/1.1/"
   xmlns:cc="http://creativecommons.org/ns#"
   xmlns:rdf="http://www.w3.org/1999/02/22-rdf-syntax-ns#"
   xmlns:svg="http://www.w3.org/2000/svg"
   xmlns="http://www.w3.org/2000/svg"
   xmlns:sodipodi="http://sodipodi.sourceforge.net/DTD/sodipodi-0.dtd"
   xmlns:inkscape="http://www.inkscape.org/namespaces/inkscape"
   width="200"
   height="200"
   viewBox="0 0 200 200"
   id="svg2"
   version="1.1"
   inkscape:version="0.91 r13725"
   inkscape:export-filename="/home/pry/Pictures/Logos/logo-favicon2.png"
   inkscape:export-xdpi="90"
   inkscape:export-ydpi="90"
   sodipodi:docname="logo-favicon.svg">
  <defs
     id="defs4" />
  <sodipodi:namedview
     id="base"
     pagecolor="#ffffff"
     bordercolor="#666666"
     borderopacity="1.0"
     inkscape:pageopacity="0.0"
     inkscape:pageshadow="2"
     inkscape:zoom="1.4142136"
     inkscape:cx="133.64118"
     inkscape:cy="83.500253"
     inkscape:document-units="px"
     inkscape:current-layer="layer1"
     showgrid="false"
     units="px"
     inkscape:snap-bbox="true"
     inkscape:snap-text-baseline="true"
     showguides="true"
     inkscape:guide-bbox="true"
     inkscape:window-width="1278"
     inkscape:window-height="767"
     inkscape:window-x="0"
     inkscape:window-y="32"
     inkscape:window-maximized="0">
    <sodipodi:guide
       position="261.62951,620.83976"
       orientation="0,1"
       id="guide3537" />
    <sodipodi:guide
       position="-36.769553,106.06602"
       orientation="0,1"
       id="guide3539" />
    <sodipodi:guide
       position="313.95542,543.05802"
       orientation="0,1"
       id="guide3541" />
    <sodipodi:guide
       position="103.23759,45.254834"
       orientation="0,1"
       id="guide3543" />
  </sodipodi:namedview>
  <metadata
     id="metadata7">
    <rdf:RDF>
      <cc:Work
         rdf:about="">
        <dc:format>image/svg+xml</dc:format>
        <dc:type
           rdf:resource="http://purl.org/dc/dcmitype/StillImage" />
        <dc:title />
      </cc:Work>
    </rdf:RDF>
  </metadata>
  <g
     inkscape:label="Layer 1"
     inkscape:groupmode="layer"
     id="layer1"
     transform="translate(0,-852.3622)">
    <path
       style="fill:#1a1a1a"
       d="M 101.49414 5.2011719 C 70.029966 5.2011718 38.565794 11.957644 25.052734 25.470703 C -1.9733849 52.496822 -1.9733848 151.3274 25.052734 178.35352 C 52.078854 205.37963 150.90943 205.37963 177.93555 178.35352 C 204.96167 151.3274 204.96167 52.496822 177.93555 25.470703 C 164.42249 11.957643 132.95832 5.201172 101.49414 5.2011719 z M 45.035156 62.949219 L 45.03125 79.492188 L 31.068359 71.214844 L 45.035156 62.949219 z M 46.171875 62.951172 L 60.054688 71.224609 L 46.166016 79.492188 L 46.171875 62.951172 z M 116.39844 63.007812 L 116.39258 79.548828 L 102.42969 71.273438 L 116.39844 63.007812 z M 117.5332 63.007812 L 131.41602 71.28125 L 117.5293 79.550781 L 117.5332 63.007812 z M 152.07812 63.007812 L 152.07227 79.550781 L 138.10938 71.275391 L 152.07812 63.007812 z M 153.21289 63.007812 L 167.0957 71.283203 L 153.20898 79.550781 L 153.21289 63.007812 z M 67.236328 71.539062 L 75.681641 71.539062 L 75.681641 76.306641 L 72.689453 76.306641 L 72.689453 74.597656 L 70.535156 74.597656 L 70.535156 76.693359 L 75.779297 80.705078 L 75.779297 87.566406 L 67.126953 87.566406 L 67.126953 82.580078 L 70.423828 82.580078 L 70.423828 84.529297 L 72.470703 84.529297 L 72.470703 81.980469 L 67.236328 77.955078 L 67.236328 71.539062 z M 77.228516 71.539062 L 84.865234 71.539062 L 84.865234 74.587891 L 80.492188 74.587891 L 80.492188 77.679688 L 84.650391 77.679688 L 84.650391 80.671875 L 80.537109 80.671875 L 80.537109 84.529297 L 84.976562 84.529297 L 84.976562 87.566406 L 77.228516 87.566406 L 77.228516 71.539062 z M 88.544922 71.539062 L 95.466797 71.539062 L 95.466797 77.589844 L 92.158203 77.589844 L 92.158203 74.587891 L 89.501953 74.587891 L 89.501953 84.529297 L 92.158203 84.529297 L 92.158203 82.580078 L 95.466797 82.580078 L 95.466797 85.349609 L 93.289062 87.566406 L 86.193359 87.566406 L 86.193359 73.744141 L 88.544922 71.539062 z M 30.498047 72.244141 L 44.460938 80.519531 L 30.492188 88.787109 L 30.498047 72.244141 z M 60.621094 72.244141 L 60.615234 88.783203 L 46.734375 80.509766 L 60.621094 72.244141 z M 101.85938 72.244141 L 115.82227 80.519531 L 101.85547 88.787109 L 101.85938 72.244141 z M 131.98242 72.244141 L 131.97852 88.787109 L 118.0957 80.509766 L 131.98242 72.244141 z M 137.54297 72.244141 L 151.50195 80.515625 L 137.53711 88.78125 L 137.54297 72.244141 z M 167.66602 72.244141 L 167.66016 88.783203 L 153.77734 80.509766 L 167.66602 72.244141 z M 117.5293 81.482422 L 131.41016 89.759766 L 117.52344 98.025391 L 117.5293 81.482422 z M 153.20898 81.482422 L 167.08984 89.755859 L 153.20312 98.023438 L 153.20898 81.482422 z M 46.167969 81.484375 L 60.046875 89.755859 L 46.162109 98.023438 L 46.167969 81.484375 z M 60.615234 90.71875 L 60.617188 90.71875 L 60.611328 107.3418 L 46.728516 99.068359 L 60.615234 90.71875 z M 96.294922 90.71875 L 96.294922 98.654297 L 89.068359 102.99609 L 82.412109 98.984375 L 96.294922 90.71875 z M 101.85547 90.71875 L 115.81836 99.076172 L 101.84961 107.3418 L 101.85547 90.71875 z M 131.97852 90.71875 L 131.97266 107.34375 L 118.0918 99.068359 L 131.97852 90.71875 z M 137.53711 90.71875 L 151.5 99.078125 L 137.5332 107.34375 L 137.53711 90.71875 z M 167.66016 90.71875 L 167.65625 107.3418 L 153.77344 99.068359 L 167.66016 90.71875 z M 30.494141 90.720703 L 44.457031 99.078125 L 30.488281 107.34375 L 30.494141 90.720703 z M 66.173828 90.720703 L 80.136719 98.992188 L 66.167969 107.25781 L 66.173828 90.720703 z M 80.705078 99.964844 L 80.701172 116.50781 L 66.738281 108.23242 L 80.705078 99.964844 z M 81.841797 99.964844 C 83.519549 100.96794 84.872088 101.77324 85.900391 102.38672 C 86.92864 102.99907 87.874314 103.58437 88.740234 104.14258 C 89.606142 104.64385 90.555682 105.19959 91.583984 105.8125 C 92.612234 106.42541 93.992782 107.23517 95.724609 108.23828 L 81.835938 116.50391 L 81.841797 99.964844 z M 45.023438 100.03711 L 45.025391 100.03711 L 45.021484 116.58008 L 31.054688 108.30469 L 45.023438 100.03711 z M 116.38281 100.09375 L 116.38477 100.09375 L 116.38086 116.63672 L 102.41992 108.36133 L 116.38281 100.09375 z M 152.06836 100.09375 L 152.0625 116.63477 L 138.09961 108.36133 L 152.06836 100.09375 z M 96.291016 109.26562 L 96.285156 125.89258 L 82.40625 117.53125 L 96.291016 109.26562 z M 30.488281 109.33398 L 44.451172 117.60742 L 30.482422 125.87305 L 30.488281 109.33398 z M 60.611328 109.33398 L 60.605469 125.87695 L 46.724609 117.59961 L 60.611328 109.33398 z M 101.84961 109.33398 L 115.8125 117.60938 L 101.8457 125.87305 L 101.84961 109.33398 z M 131.97266 109.33398 L 131.96875 125.87305 L 118.08594 117.59961 L 131.97266 109.33398 z M 137.5293 109.33398 L 151.49219 117.60742 L 137.52539 125.87305 L 137.5293 109.33398 z M 167.65234 109.33398 L 167.6543 109.33398 L 167.65625 109.33398 L 167.65039 125.87695 L 153.76758 117.59961 L 167.65234 109.33398 z M 73.556641 113.65039 L 80.130859 117.49414 L 66.166016 125.8457 L 66.166016 117.99219 L 73.556641 113.65039 z M 45.017578 118.57227 L 45.019531 118.57227 L 45.013672 135.11133 L 31.050781 126.83789 L 45.017578 118.57227 z M 46.154297 118.57227 L 60.037109 126.8457 L 46.150391 135.11133 L 46.154297 118.57227 z M 116.38086 118.62891 L 116.375 135.16992 L 102.41211 126.89453 L 116.38086 118.62891 z M 117.51758 118.62891 L 131.39844 126.90234 L 117.51172 135.16797 L 117.51758 118.62891 z M 152.0625 118.62891 L 152.05664 135.16992 L 138.09375 126.89453 L 152.0625 118.62891 z M 153.19922 118.62891 L 167.08008 126.9043 L 153.19336 135.16992 L 153.19922 118.62891 z "
       id="path3351"
       transform="translate(0,852.3622)" />
    <text
       xml:space="preserve"
       style="font-style:normal;font-variant:normal;font-weight:normal;font-stretch:normal;font-size:40px;line-height:125%;font-family:'Aldo the Apache';-inkscape-font-specification:'Aldo the Apache';letter-spacing:0px;word-spacing:0px;fill:#ffffff;fill-opacity:1;stroke:none;stroke-width:1px;stroke-linecap:butt;stroke-linejoin:miter;stroke-opacity:1"
       x="130.75"
       y="1016.8622"
       id="text3371"
       sodipodi:linespacing="125%"><tspan
         sodipodi:role="line"
         id="tspan3373"
         x="130.75"
         y="1016.8622"
         style="font-style:normal;font-variant:normal;font-weight:normal;font-stretch:normal;font-size:7.5px;font-family:'Aldo the Apache';-inkscape-font-specification:'Aldo the Apache'" /></text>
  </g>
</svg>
